<?xml version="1.0" encoding="UTF-8" standalone="no"?><svg xmlns="http://www.w3.org/2000/svg" xmlns:xlink="http://www.w3.org/1999/xlink" contentStyleType="text/css" height="301px" preserveAspectRatio="none" style="width:596px;height:301px;background:#FFFFFF;" version="1.1" viewBox="0 0 596 301" width="596px" zoomAndPan="magnify"><defs/><g><!--MD5=[dd54a8b570a621ba36a31047fd65141d]
class DescriptorScriptPubKeyMan--><g id="elem_DescriptorScriptPubKeyMan"><rect codeLine="9" fill="#F1F1F1" height="97.4648" id="DescriptorScriptPubKeyMan" rx="2.5" ry="2.5" style="stroke:#181818;stroke-width:0.5;" width="524" x="36" y="7"/><ellipse cx="199.25" cy="23" fill="#ADD1B2" rx="11" ry="11" style="stroke:#181818;stroke-width:1.0;"/><path d="M201.7231,29.1431 Q201.1421,29.4419 200.5029,29.5913 Q199.8638,29.7407 199.1582,29.7407 Q196.6514,29.7407 195.3315,28.0889 Q194.0117,26.437 194.0117,23.3159 Q194.0117,20.1865 195.3315,18.5347 Q196.6514,16.8828 199.1582,16.8828 Q199.8638,16.8828 200.5112,17.0322 Q201.1587,17.1816 201.7231,17.4805 L201.7231,20.2031 Q201.0923,19.6221 200.4988,19.3523 Q199.9053,19.0825 199.2744,19.0825 Q197.9297,19.0825 197.2449,20.1492 Q196.5601,21.2158 196.5601,23.3159 Q196.5601,25.4077 197.2449,26.4744 Q197.9297,27.541 199.2744,27.541 Q199.9053,27.541 200.4988,27.2712 Q201.0923,27.0015 201.7231,26.4204 Z " fill="#000000"/><text fill="#000000" font-family="sans-serif" font-size="14" lengthAdjust="spacing" textLength="189" x="219.75" y="28.291">DescriptorScriptPubKeyMan</text><line style="stroke:#181818;stroke-width:0.5;" x1="37" x2="559" y1="39" y2="39"/><rect fill="none" height="6" style="stroke:#C82930;stroke-width:1.0;" width="6" x="44" y="49.7441"/><text fill="#000000" font-family="sans-serif" font-size="14" lengthAdjust="spacing" textLength="498" x="56" y="56.5352">map&lt;CKeyID, pair&lt;CPubKey, vector&lt;unsigned char&gt;&gt;&gt; CryptedKeyMap</text><rect fill="none" height="6" style="stroke:#C82930;stroke-width:1.0;" width="6" x="44" y="66.2324"/><text fill="#000000" font-family="sans-serif" font-size="14" lengthAdjust="spacing" textLength="48" x="56" y="73.0234">int32_t</text><text fill="#000000" font-family="sans-serif" font-size="14" lengthAdjust="spacing" textLength="187" x="120" y="73.0234">m_max_cached_index = -1</text><rect fill="none" height="6" style="stroke:#C82930;stroke-width:1.0;" width="6" x="44" y="82.7207"/><text fill="#000000" font-family="sans-serif" font-size="14" lengthAdjust="spacing" textLength="31" x="56" y="89.5117">bool</text><text fill="#000000" font-family="sans-serif" font-size="14" lengthAdjust="spacing" textLength="239" x="120" y="89.5117">m_decryption_thoroughly_checked</text><line style="stroke:#181818;stroke-width:0.5;" x1="37" x2="559" y1="96.4648" y2="96.4648"/></g><!--MD5=[d9da613305f9a6871829410bda84af9f]
class ScriptPubKeyMan--><g id="elem_ScriptPubKeyMan"><rect codeLine="2" fill="#F1F1F1" height="130.4414" id="ScriptPubKeyMan" rx="2.5" ry="2.5" style="stroke:#181818;stroke-width:0.5;" width="582" x="7" y="164"/><ellipse cx="234.75" cy="180" fill="#ADD1B2" rx="11" ry="11" style="stroke:#181818;stroke-width:1.0;"/><path d="M237.2231,186.1431 Q236.6421,186.4419 236.0029,186.5913 Q235.3638,186.7407 234.6582,186.7407 Q232.1514,186.7407 230.8315,185.0889 Q229.5117,183.437 229.5117,180.3159 Q229.5117,177.1865 230.8315,175.5347 Q232.1514,173.8828 234.6582,173.8828 Q235.3638,173.8828 236.0112,174.0322 Q236.6587,174.1816 237.2231,174.4805 L237.2231,177.2031 Q236.5923,176.6221 235.9988,176.3523 Q235.4053,176.0825 234.7744,176.0825 Q233.4297,176.0825 232.7449,177.1492 Q232.0601,178.2158 232.0601,180.3159 Q232.0601,182.4077 232.7449,183.4744 Q233.4297,184.541 234.7744,184.541 Q235.4053,184.541 235.9988,184.2712 Q236.5923,184.0015 237.2231,183.4204 Z " fill="#000000"/><text fill="#000000" font-family="sans-serif" font-size="14" lengthAdjust="spacing" textLength="118" x="255.25" y="185.291">ScriptPubKeyMan</text><line style="stroke:#181818;stroke-width:0.5;" x1="8" x2="588" y1="196" y2="196"/><text fill="#000000" font-family="sans-serif" font-size="14" lengthAdjust="spacing" textLength="366" x="27" y="213.5352">boost::signals2::signalx&lt; void bool fHaveWatchOnly&gt;</text><text fill="#000000" font-family="sans-serif" font-size="14" lengthAdjust="spacing" textLength="172" x="411" y="213.5352">NotifyWatchonlyChanged</text><text fill="#000000" font-family="sans-serif" font-size="14" lengthAdjust="spacing" textLength="208" x="27" y="230.0234">boost::signals2::signal&lt; void&gt;</text><text fill="#000000" font-family="sans-serif" font-size="14" lengthAdjust="spacing" textLength="223" x="251" y="230.0234">NotifyCanGetAddressesChanged</text><ellipse cx="18" cy="242.7207" fill="none" rx="3" ry="3" style="stroke:#038048;stroke-width:1.0;"/><text fill="#000000" font-family="sans-serif" font-size="14" lengthAdjust="spacing" textLength="66" x="27" y="246.5117">seeds List</text><ellipse cx="18" cy="259.209" fill="none" rx="3" ry="3" style="stroke:#038048;stroke-width:1.0;"/><text fill="#000000" font-family="sans-serif" font-size="14" lengthAdjust="spacing" textLength="133" x="27" y="263">pending_seed Seed</text><ellipse cx="18" cy="275.6973" fill="none" rx="3" ry="3" style="stroke:#038048;stroke-width:1.0;"/><text fill="#000000" font-family="sans-serif" font-size="14" lengthAdjust="spacing" textLength="163" x="27" y="279.4883">pending_mnemonic List</text><line style="stroke:#181818;stroke-width:0.5;" x1="8" x2="588" y1="286.4414" y2="286.4414"/></g><!--MD5=[73d259679dc15c115b9ff4a8f0f9a92e]
reverse link DescriptorScriptPubKeyMan to ScriptPubKeyMan--><g id="link_DescriptorScriptPubKeyMan_ScriptPubKeyMan"><path codeLine="1" d="M298,125.54 C298,138.18 298,151.32 298,163.82 " fill="none" id="DescriptorScriptPubKeyMan-backto-ScriptPubKeyMan" style="stroke:#181818;stroke-width:1.0;"/><polygon fill="none" points="291,125.79,298,105.79,305,125.79,291,125.79" style="stroke:#181818;stroke-width:1.0;"/></g><!--MD5=[29fc39b90c9266fdacf0c2db5b0d02aa]
@startuml Example
    DescriptorScriptPubKeyMan <|- - ScriptPubKeyMan
    class ScriptPubKeyMan {
        boost::signals2::signalx< void bool fHaveWatchOnly> 	NotifyWatchonlyChanged
        boost::signals2::signal< void> 	NotifyCanGetAddressesChanged
        +seeds List
        +pending_seed Seed
        +pending_mnemonic List
    }
    class DescriptorScriptPubKeyMan {
        -map<CKeyID, pair<CPubKey, vector<unsigned char>>> CryptedKeyMap
        -int32_t 	m_max_cached_index = -1
        -bool 	m_decryption_thoroughly_checked
    }
@enduml

PlantUML version 1.2022.13(Sat Nov 19 07:22:17 CST 2022)
(GPL source distribution)
Java Runtime: OpenJDK Runtime Environment
JVM: OpenJDK 64-Bit Server VM
Default Encoding: UTF-8
Language: en
Country: MX
--></g></svg>