<?xml version="1.0" encoding="UTF-8" standalone="no"?><svg xmlns="http://www.w3.org/2000/svg" xmlns:xlink="http://www.w3.org/1999/xlink" contentStyleType="text/css" height="809px" preserveAspectRatio="none" style="width:1655px;height:809px;background:#FFFFFF;" version="1.1" viewBox="0 0 1655 809" width="1655px" zoomAndPan="magnify"><defs/><g><!--MD5=[def89af15793d8a5c982b20a9f972022]
class RPCHelpMan--><g id="elem_RPCHelpMan"><rect codeLine="3" fill="#F1F1F1" height="245.8594" id="RPCHelpMan" rx="2.5" ry="2.5" style="stroke:#181818;stroke-width:0.5;" width="797" x="795" y="218"/><ellipse cx="1145.75" cy="234" fill="#ADD1B2" rx="11" ry="11" style="stroke:#181818;stroke-width:1.0;"/><path d="M1148.2231,240.1431 Q1147.6421,240.4419 1147.0029,240.5913 Q1146.3638,240.7407 1145.6582,240.7407 Q1143.1514,240.7407 1141.8315,239.0889 Q1140.5117,237.437 1140.5117,234.3159 Q1140.5117,231.1865 1141.8315,229.5347 Q1143.1514,227.8828 1145.6582,227.8828 Q1146.3638,227.8828 1147.0112,228.0322 Q1147.6587,228.1816 1148.2231,228.4805 L1148.2231,231.2031 Q1147.5923,230.6221 1146.9988,230.3523 Q1146.4053,230.0825 1145.7744,230.0825 Q1144.4297,230.0825 1143.7449,231.1492 Q1143.0601,232.2158 1143.0601,234.3159 Q1143.0601,236.4077 1143.7449,237.4744 Q1144.4297,238.541 1145.7744,238.541 Q1146.4053,238.541 1146.9988,238.2712 Q1147.5923,238.0015 1148.2231,237.4204 Z " fill="#000000"/><text fill="#000000" font-family="sans-serif" font-size="14" lengthAdjust="spacing" textLength="87" x="1166.25" y="239.291">RPCHelpMan</text><line style="stroke:#181818;stroke-width:0.5;" x1="796" x2="1591" y1="250" y2="250"/><ellipse cx="806" cy="263.7441" fill="none" rx="3" ry="3" style="stroke:#038048;stroke-width:1.0;"/><text fill="#000000" font-family="sans-serif" font-size="14" lengthAdjust="spacing" textLength="102" x="815" y="267.5352">string m_name</text><polygon fill="none" points="806,275.2324,810,279.2324,806,283.2324,802,279.2324" style="stroke:#B38D22;stroke-width:1.0;"/><text fill="#000000" font-family="sans-serif" font-size="14" lengthAdjust="spacing" textLength="156" x="815" y="284.0234">RPCMethodImpl m_fun</text><polygon fill="none" points="806,291.7207,810,295.7207,806,299.7207,802,295.7207" style="stroke:#B38D22;stroke-width:1.0;"/><text fill="#000000" font-family="sans-serif" font-size="14" lengthAdjust="spacing" textLength="141" x="815" y="300.5117">string m_description</text><polygon fill="none" points="806,308.209,810,312.209,806,316.209,802,312.209" style="stroke:#B38D22;stroke-width:1.0;"/><text fill="#000000" font-family="sans-serif" font-size="14" lengthAdjust="spacing" textLength="146" x="815" y="317">RPCResults m_results</text><polygon fill="none" points="806,324.6973,810,328.6973,806,332.6973,802,328.6973" style="stroke:#B38D22;stroke-width:1.0;"/><text fill="#000000" font-family="sans-serif" font-size="14" lengthAdjust="spacing" textLength="170" x="815" y="333.4883">vector&lt;RPCArg&gt; m_args</text><polygon fill="none" points="806,341.1855,810,345.1855,806,349.1855,802,345.1855" style="stroke:#B38D22;stroke-width:1.0;"/><text fill="#000000" font-family="sans-serif" font-size="14" lengthAdjust="spacing" textLength="183" x="815" y="349.9766">RPCExamples m_examples</text><line style="stroke:#181818;stroke-width:0.5;" x1="796" x2="1591" y1="356.9297" y2="356.9297"/><ellipse cx="806" cy="370.6738" fill="#84BE84" rx="3" ry="3" style="stroke:#038048;stroke-width:1.0;"/><text fill="#000000" font-family="sans-serif" font-size="14" lengthAdjust="spacing" textLength="771" x="815" y="374.4648">RPCHelpMan(string name, string description, vector&lt;RPCArg&gt; args, RPCResults results, RPCExamples examples)</text><ellipse cx="806" cy="387.1621" fill="#84BE84" rx="3" ry="3" style="stroke:#038048;stroke-width:1.0;"/><text fill="#000000" font-family="sans-serif" font-size="14" lengthAdjust="spacing" textLength="400" x="815" y="390.9531">UniValue HandleRequest(const JSONRPCRequest&amp; request)</text><ellipse cx="806" cy="403.6504" fill="#84BE84" rx="3" ry="3" style="stroke:#038048;stroke-width:1.0;"/><text fill="#000000" font-family="sans-serif" font-size="14" lengthAdjust="spacing" textLength="113" x="815" y="407.4414">string ToString()</text><ellipse cx="806" cy="420.1387" fill="#84BE84" rx="3" ry="3" style="stroke:#038048;stroke-width:1.0;"/><text fill="#000000" font-family="sans-serif" font-size="14" lengthAdjust="spacing" textLength="152" x="815" y="423.9297">UniValue GetArgMap()</text><ellipse cx="806" cy="436.627" fill="#84BE84" rx="3" ry="3" style="stroke:#038048;stroke-width:1.0;"/><text fill="#000000" font-family="sans-serif" font-size="14" lengthAdjust="spacing" textLength="265" x="815" y="440.418">bool IsValidNumArgs(size_t num_args)</text><ellipse cx="806" cy="453.1152" fill="#84BE84" rx="3" ry="3" style="stroke:#038048;stroke-width:1.0;"/><text fill="#000000" font-family="sans-serif" font-size="14" lengthAdjust="spacing" textLength="241" x="815" y="456.9063">vector&lt;std::string&gt; GetArgNames()</text></g><!--MD5=[6a3e64bfe0f63722016f303c42c7dcf0]
class RPCResult--><g id="elem_RPCResult"><rect codeLine="17" fill="#F1F1F1" height="146.9297" id="RPCResult" rx="2.5" ry="2.5" style="stroke:#181818;stroke-width:0.5;" width="219" x="791" y="7"/><ellipse cx="861.75" cy="23" fill="#ADD1B2" rx="11" ry="11" style="stroke:#181818;stroke-width:1.0;"/><path d="M864.2231,29.1431 Q863.6421,29.4419 863.0029,29.5913 Q862.3638,29.7407 861.6582,29.7407 Q859.1514,29.7407 857.8315,28.0889 Q856.5117,26.437 856.5117,23.3159 Q856.5117,20.1865 857.8315,18.5347 Q859.1514,16.8828 861.6582,16.8828 Q862.3638,16.8828 863.0112,17.0322 Q863.6587,17.1816 864.2231,17.4805 L864.2231,20.2031 Q863.5923,19.6221 862.9988,19.3523 Q862.4053,19.0825 861.7744,19.0825 Q860.4297,19.0825 859.7449,20.1492 Q859.0601,21.2158 859.0601,23.3159 Q859.0601,25.4077 859.7449,26.4744 Q860.4297,27.541 861.7744,27.541 Q862.4053,27.541 862.9988,27.2712 Q863.5923,27.0015 864.2231,26.4204 Z " fill="#000000"/><text fill="#000000" font-family="sans-serif" font-size="14" lengthAdjust="spacing" textLength="69" x="882.25" y="28.291">RPCResult</text><line style="stroke:#181818;stroke-width:0.5;" x1="792" x2="1009" y1="39" y2="39"/><ellipse cx="802" cy="52.7441" fill="none" rx="3" ry="3" style="stroke:#038048;stroke-width:1.0;"/><text fill="#000000" font-family="sans-serif" font-size="14" lengthAdjust="spacing" textLength="86" x="811" y="56.5352">Type m_type</text><ellipse cx="802" cy="69.2324" fill="none" rx="3" ry="3" style="stroke:#038048;stroke-width:1.0;"/><text fill="#000000" font-family="sans-serif" font-size="14" lengthAdjust="spacing" textLength="132" x="811" y="73.0234">string m_key_name</text><ellipse cx="802" cy="85.7207" fill="none" rx="3" ry="3" style="stroke:#038048;stroke-width:1.0;"/><text fill="#000000" font-family="sans-serif" font-size="14" lengthAdjust="spacing" textLength="193" x="811" y="89.5117">vector&lt;RPCResult&gt; m_inner</text><ellipse cx="802" cy="102.209" fill="none" rx="3" ry="3" style="stroke:#038048;stroke-width:1.0;"/><text fill="#000000" font-family="sans-serif" font-size="14" lengthAdjust="spacing" textLength="116" x="811" y="106">bool m_optional;</text><ellipse cx="802" cy="118.6973" fill="none" rx="3" ry="3" style="stroke:#038048;stroke-width:1.0;"/><text fill="#000000" font-family="sans-serif" font-size="14" lengthAdjust="spacing" textLength="169" x="811" y="122.4883">bool m_skip_type_check;</text><ellipse cx="802" cy="135.1855" fill="none" rx="3" ry="3" style="stroke:#038048;stroke-width:1.0;"/><text fill="#000000" font-family="sans-serif" font-size="14" lengthAdjust="spacing" textLength="145" x="811" y="138.9766">string m_description;</text><line style="stroke:#181818;stroke-width:0.5;" x1="792" x2="1009" y1="145.9297" y2="145.9297"/></g><!--MD5=[73961043cdf1bad0abceb3c0eb2e83b0]
class RPCResults--><g id="elem_RPCResults"><rect codeLine="25" fill="#F1F1F1" height="80.9766" id="RPCResults" rx="2.5" ry="2.5" style="stroke:#181818;stroke-width:0.5;" width="246" x="1071.5" y="40.5"/><ellipse cx="1152.25" cy="56.5" fill="#ADD1B2" rx="11" ry="11" style="stroke:#181818;stroke-width:1.0;"/><path d="M1154.7231,62.6431 Q1154.1421,62.9419 1153.5029,63.0913 Q1152.8638,63.2407 1152.1582,63.2407 Q1149.6514,63.2407 1148.3315,61.5889 Q1147.0117,59.937 1147.0117,56.8159 Q1147.0117,53.6865 1148.3315,52.0347 Q1149.6514,50.3828 1152.1582,50.3828 Q1152.8638,50.3828 1153.5112,50.5322 Q1154.1587,50.6816 1154.7231,50.9805 L1154.7231,53.7031 Q1154.0923,53.1221 1153.4988,52.8523 Q1152.9053,52.5825 1152.2744,52.5825 Q1150.9297,52.5825 1150.2449,53.6492 Q1149.5601,54.7158 1149.5601,56.8159 Q1149.5601,58.9077 1150.2449,59.9744 Q1150.9297,61.041 1152.2744,61.041 Q1152.9053,61.041 1153.4988,60.7712 Q1154.0923,60.5015 1154.7231,59.9204 Z " fill="#000000"/><text fill="#000000" font-family="sans-serif" font-size="14" lengthAdjust="spacing" textLength="76" x="1172.75" y="61.791">RPCResults</text><line style="stroke:#181818;stroke-width:0.5;" x1="1072.5" x2="1316.5" y1="72.5" y2="72.5"/><ellipse cx="1082.5" cy="86.2441" fill="none" rx="3" ry="3" style="stroke:#038048;stroke-width:1.0;"/><text fill="#000000" font-family="sans-serif" font-size="14" lengthAdjust="spacing" textLength="203" x="1091.5" y="90.0352">vector&lt;RPCResult&gt; m_results</text><line style="stroke:#181818;stroke-width:0.5;" x1="1072.5" x2="1316.5" y1="96.9883" y2="96.9883"/><ellipse cx="1082.5" cy="110.7324" fill="#84BE84" rx="3" ry="3" style="stroke:#038048;stroke-width:1.0;"/><text fill="#000000" font-family="sans-serif" font-size="14" lengthAdjust="spacing" textLength="220" x="1091.5" y="114.5234">std::string ToDescriptionString()</text></g><!--MD5=[4ef172f1e7ff5a4073b58e807dc96381]
class RPCExamples--><g id="elem_RPCExamples"><rect codeLine="29" fill="#F1F1F1" height="80.9766" id="RPCExamples" rx="2.5" ry="2.5" style="stroke:#181818;stroke-width:0.5;" width="239" x="941" y="623"/><ellipse cx="1009.75" cy="639" fill="#ADD1B2" rx="11" ry="11" style="stroke:#181818;stroke-width:1.0;"/><path d="M1012.2231,645.1431 Q1011.6421,645.4419 1011.0029,645.5913 Q1010.3638,645.7407 1009.6582,645.7407 Q1007.1514,645.7407 1005.8315,644.0889 Q1004.5117,642.437 1004.5117,639.3159 Q1004.5117,636.1865 1005.8315,634.5347 Q1007.1514,632.8828 1009.6582,632.8828 Q1010.3638,632.8828 1011.0112,633.0322 Q1011.6587,633.1816 1012.2231,633.4805 L1012.2231,636.2031 Q1011.5923,635.6221 1010.9988,635.3523 Q1010.4053,635.0825 1009.7744,635.0825 Q1008.4297,635.0825 1007.7449,636.1492 Q1007.0601,637.2158 1007.0601,639.3159 Q1007.0601,641.4077 1007.7449,642.4744 Q1008.4297,643.541 1009.7744,643.541 Q1010.4053,643.541 1010.9988,643.2712 Q1011.5923,643.0015 1012.2231,642.4204 Z " fill="#000000"/><text fill="#000000" font-family="sans-serif" font-size="14" lengthAdjust="spacing" textLength="93" x="1030.25" y="644.291">RPCExamples</text><line style="stroke:#181818;stroke-width:0.5;" x1="942" x2="1179" y1="655" y2="655"/><ellipse cx="952" cy="668.7441" fill="none" rx="3" ry="3" style="stroke:#038048;stroke-width:1.0;"/><text fill="#000000" font-family="sans-serif" font-size="14" lengthAdjust="spacing" textLength="159" x="961" y="672.5352">std::string m_examples</text><line style="stroke:#181818;stroke-width:0.5;" x1="942" x2="1179" y1="679.4883" y2="679.4883"/><ellipse cx="952" cy="693.2324" fill="#84BE84" rx="3" ry="3" style="stroke:#038048;stroke-width:1.0;"/><text fill="#000000" font-family="sans-serif" font-size="14" lengthAdjust="spacing" textLength="213" x="961" y="697.0234">RPCExamples(string examples)</text></g><!--MD5=[93298ae1fdec47dedc8d736f668d658b]
class RPCArg--><g id="elem_RPCArg"><rect codeLine="33" fill="#F1F1F1" height="278.8359" id="RPCArg" rx="2.5" ry="2.5" style="stroke:#181818;stroke-width:0.5;" width="225" x="1215" y="524"/><ellipse cx="1297.25" cy="540" fill="#ADD1B2" rx="11" ry="11" style="stroke:#181818;stroke-width:1.0;"/><path d="M1299.7231,546.1431 Q1299.1421,546.4419 1298.5029,546.5913 Q1297.8638,546.7407 1297.1582,546.7407 Q1294.6514,546.7407 1293.3315,545.0889 Q1292.0117,543.437 1292.0117,540.3159 Q1292.0117,537.1865 1293.3315,535.5347 Q1294.6514,533.8828 1297.1582,533.8828 Q1297.8638,533.8828 1298.5112,534.0322 Q1299.1587,534.1816 1299.7231,534.4805 L1299.7231,537.2031 Q1299.0923,536.6221 1298.4988,536.3523 Q1297.9053,536.0825 1297.2744,536.0825 Q1295.9297,536.0825 1295.2449,537.1492 Q1294.5601,538.2158 1294.5601,540.3159 Q1294.5601,542.4077 1295.2449,543.4744 Q1295.9297,544.541 1297.2744,544.541 Q1297.9053,544.541 1298.4988,544.2712 Q1299.0923,544.0015 1299.7231,543.4204 Z " fill="#000000"/><text fill="#000000" font-family="sans-serif" font-size="14" lengthAdjust="spacing" textLength="52" x="1317.75" y="545.291">RPCArg</text><line style="stroke:#181818;stroke-width:0.5;" x1="1216" x2="1439" y1="556" y2="556"/><ellipse cx="1226" cy="569.7441" fill="none" rx="3" ry="3" style="stroke:#038048;stroke-width:1.0;"/><text fill="#000000" font-family="sans-serif" font-size="14" lengthAdjust="spacing" textLength="109" x="1235" y="573.5352">string m_names</text><ellipse cx="1226" cy="586.2324" fill="none" rx="3" ry="3" style="stroke:#038048;stroke-width:1.0;"/><text fill="#000000" font-family="sans-serif" font-size="14" lengthAdjust="spacing" textLength="86" x="1235" y="590.0234">Type m_type</text><ellipse cx="1226" cy="602.7207" fill="none" rx="3" ry="3" style="stroke:#038048;stroke-width:1.0;"/><text fill="#000000" font-family="sans-serif" font-size="14" lengthAdjust="spacing" textLength="103" x="1235" y="606.5117">bool m_hidden</text><ellipse cx="1226" cy="619.209" fill="none" rx="3" ry="3" style="stroke:#038048;stroke-width:1.0;"/><text fill="#000000" font-family="sans-serif" font-size="14" lengthAdjust="spacing" textLength="176" x="1235" y="623">vector&lt;RPCArg&gt; m_inner</text><ellipse cx="1226" cy="635.6973" fill="none" rx="3" ry="3" style="stroke:#038048;stroke-width:1.0;"/><text fill="#000000" font-family="sans-serif" font-size="14" lengthAdjust="spacing" textLength="133" x="1235" y="639.4883">Fallback m_fallback</text><ellipse cx="1226" cy="652.1855" fill="none" rx="3" ry="3" style="stroke:#038048;stroke-width:1.0;"/><text fill="#000000" font-family="sans-serif" font-size="14" lengthAdjust="spacing" textLength="141" x="1235" y="655.9766">string m_description</text><ellipse cx="1226" cy="668.6738" fill="none" rx="3" ry="3" style="stroke:#038048;stroke-width:1.0;"/><text fill="#000000" font-family="sans-serif" font-size="14" lengthAdjust="spacing" textLength="199" x="1235" y="672.4648">string m_oneline_description</text><ellipse cx="1226" cy="685.1621" fill="none" rx="3" ry="3" style="stroke:#038048;stroke-width:1.0;"/><text fill="#000000" font-family="sans-serif" font-size="14" lengthAdjust="spacing" textLength="182" x="1235" y="688.9531">vector&lt;string&gt; m_type_str</text><line style="stroke:#181818;stroke-width:0.5;" x1="1216" x2="1439" y1="695.9063" y2="695.9063"/><ellipse cx="1226" cy="709.6504" fill="#84BE84" rx="3" ry="3" style="stroke:#038048;stroke-width:1.0;"/><text fill="#000000" font-family="sans-serif" font-size="14" lengthAdjust="spacing" textLength="102" x="1235" y="713.4414">GetFirstName()</text><ellipse cx="1226" cy="726.1387" fill="#84BE84" rx="3" ry="3" style="stroke:#038048;stroke-width:1.0;"/><text fill="#000000" font-family="sans-serif" font-size="14" lengthAdjust="spacing" textLength="72" x="1235" y="729.9297">GetName()</text><ellipse cx="1226" cy="742.627" fill="#84BE84" rx="3" ry="3" style="stroke:#038048;stroke-width:1.0;"/><text fill="#000000" font-family="sans-serif" font-size="14" lengthAdjust="spacing" textLength="80" x="1235" y="746.418">IsOptional()</text><ellipse cx="1226" cy="759.1152" fill="#84BE84" rx="3" ry="3" style="stroke:#038048;stroke-width:1.0;"/><text fill="#000000" font-family="sans-serif" font-size="14" lengthAdjust="spacing" textLength="147" x="1235" y="762.9063">ToDescriptionString()</text><ellipse cx="1226" cy="775.6035" fill="#84BE84" rx="3" ry="3" style="stroke:#038048;stroke-width:1.0;"/><text fill="#000000" font-family="sans-serif" font-size="14" lengthAdjust="spacing" textLength="69" x="1235" y="779.3945">ToString()</text><ellipse cx="1226" cy="792.0918" fill="#84BE84" rx="3" ry="3" style="stroke:#038048;stroke-width:1.0;"/><text fill="#000000" font-family="sans-serif" font-size="14" lengthAdjust="spacing" textLength="113" x="1235" y="795.8828">ToStringObject()</text></g><!--MD5=[d64e239be057aaba023e0ba99fad02af]
class JSONRPCRequest--><g id="elem_JSONRPCRequest"><rect fill="#F1F1F1" height="48" id="JSONRPCRequest" rx="2.5" ry="2.5" style="stroke:#181818;stroke-width:0.5;" width="147" x="7" y="315"/><ellipse cx="22" cy="331" fill="#ADD1B2" rx="11" ry="11" style="stroke:#181818;stroke-width:1.0;"/><path d="M24.4731,337.1431 Q23.8921,337.4419 23.2529,337.5913 Q22.6138,337.7407 21.9082,337.7407 Q19.4014,337.7407 18.0815,336.0889 Q16.7617,334.437 16.7617,331.3159 Q16.7617,328.1865 18.0815,326.5347 Q19.4014,324.8828 21.9082,324.8828 Q22.6138,324.8828 23.2612,325.0322 Q23.9087,325.1816 24.4731,325.4805 L24.4731,328.2031 Q23.8423,327.6221 23.2488,327.3523 Q22.6553,327.0825 22.0244,327.0825 Q20.6797,327.0825 19.9949,328.1492 Q19.3101,329.2158 19.3101,331.3159 Q19.3101,333.4077 19.9949,334.4744 Q20.6797,335.541 22.0244,335.541 Q22.6553,335.541 23.2488,335.2712 Q23.8423,335.0015 24.4731,334.4204 Z " fill="#000000"/><text fill="#000000" font-family="sans-serif" font-size="14" lengthAdjust="spacing" textLength="115" x="36" y="336.291">JSONRPCRequest</text><line style="stroke:#181818;stroke-width:0.5;" x1="8" x2="153" y1="347" y2="347"/><line style="stroke:#181818;stroke-width:0.5;" x1="8" x2="153" y1="355" y2="355"/></g><path d="M189.5,321.5 L189.5,346.8105 A0,0 0 0 0 189.5,346.8105 L751.5,346.8105 A0,0 0 0 0 751.5,346.8105 L751.5,339.5 L799,278.7324 L751.5,331.5 L751.5,331.5 L741.5,321.5 L189.5,321.5 A0,0 0 0 0 189.5,321.5 " fill="#FEFFDD" style="stroke:#181818;stroke-width:0.5;"/><path d="M741.5,321.5 L741.5,331.5 L751.5,331.5 L741.5,321.5 " fill="#FEFFDD" style="stroke:#181818;stroke-width:0.5;"/><text fill="#000000" font-family="sans-serif" font-size="13" lengthAdjust="spacing" textLength="541" x="195.5" y="339.0684">RPCMethodImpl = function&lt;UniValue(const RPCHelpMan&amp;, const JSONRPCRequest&amp;)&gt;</text><!--MD5=[08002c325bc580ad71d82dc5b6b1384b]
link RPCResult to RPCResults--><g id="link_RPCResult_RPCResults"><path codeLine="49" d="M1010.13,83.83 C1026.44,84.16 1043.22,84.39 1059.4,84.47 " fill="none" id="RPCResult-to-RPCResults" style="stroke:#181818;stroke-width:1.0;"/><polygon fill="none" points="1068.99,84.5,1062.9988,80.4868,1056.99,84.4736,1062.9812,88.4868,1068.99,84.5" style="stroke:#181818;stroke-width:1.0;"/></g><!--MD5=[8b8d252a0dae94a22cf20bb277b2f5c7]
link RPCResult to RPCResult--><g id="link_RPCResult_RPCResult"><path codeLine="50" d="M1010.45,34.61 C1030.74,40.34 1045,55.63 1045,80.5 C1045,99.54 1036.64,112.97 1023.61,120.79 " fill="none" id="RPCResult-to-RPCResult" style="stroke:#181818;stroke-width:1.0;"/><polygon fill="none" points="1011.84,125.8,1018.9263,127.1356,1022.8847,121.108,1015.7983,119.7724,1011.84,125.8" style="stroke:#181818;stroke-width:1.0;"/></g><!--MD5=[5f978e76d17d55ede381d948292db691]
reverse link RPCArg to RPCArg--><g id="link_RPCArg_RPCArg"><path codeLine="51" d="M1452.77,612.63 C1466.29,622.41 1475,639.36 1475,663.5 C1475,694.4 1460.74,713.53 1440.36,720.89 " fill="none" id="RPCArg-backto-RPCArg" style="stroke:#181818;stroke-width:1.0;"/><polygon fill="none" points="1441.7,606.81,1445.154,613.1401,1452.3256,612.3865,1448.8716,606.0564,1441.7,606.81" style="stroke:#181818;stroke-width:1.0;"/></g><!--MD5=[8825d76f43b7509cbb86aedca7f072c9]
reverse link RPCHelpMan to RPCExamples--><g id="link_RPCHelpMan_RPCExamples"><path codeLine="52" d="M783.48,351.19 C773.21,376.09 785.56,444.34 795.5,464 C832.26,536.72 909.56,589.77 971.23,622.63 " fill="none" id="RPCHelpMan-backto-RPCExamples" style="stroke:#181818;stroke-width:1.0;"/><polygon fill="none" points="793.34,342.97,786.1696,343.7352,784.1181,350.6483,791.2885,349.8831,793.34,342.97" style="stroke:#181818;stroke-width:1.0;"/></g><!--MD5=[724a82f79d9d2729c02df5bd0f7e70cb]
link JSONRPCRequest to RPCHelpMan--><g id="link_JSONRPCRequest_RPCHelpMan"><path codeLine="53" d="M89.16,314.55 C103.51,278.3 135.97,211.61 189,184 C244.39,155.16 696.85,152.9 751,184 C785.62,203.88 758.29,259.97 780.44,274.52 " fill="none" id="JSONRPCRequest-to-RPCHelpMan" style="stroke:#181818;stroke-width:1.0;"/><polygon fill="none" points="793.03,277.64,788.1679,272.3146,781.3821,274.7544,786.2442,280.0798,793.03,277.64" style="stroke:#181818;stroke-width:1.0;"/></g><!--MD5=[65db498cffc067389dee13d9670f1adc]
reverse link RPCHelpMan to RPCArg--><g id="link_RPCHelpMan_RPCArg"><path codeLine="54" d="M1607.78,327.93 C1648.66,340.73 1617.66,414.17 1592.5,464 C1560.31,527.76 1496.94,576.38 1440.24,609.55 " fill="none" id="RPCHelpMan-backto-RPCArg" style="stroke:#181818;stroke-width:1.0;"/><polygon fill="none" points="1595,326.2,1600.4097,330.9681,1606.8917,327.8084,1601.482,323.0403,1595,326.2" style="stroke:#181818;stroke-width:1.0;"/></g><!--MD5=[5bccc26ea9cb64515f13ae5377c6ccf1]
link RPCResults to RPCHelpMan--><g id="link_RPCResults_RPCHelpMan"><path codeLine="55" d="M1325.22,87.27 C1416.2,98.92 1531.69,130.58 1592.5,214 C1614.3,243.9 1631.13,294.14 1607.39,306.95 " fill="none" id="RPCResults-to-RPCHelpMan" style="stroke:#181818;stroke-width:1.0;"/><polygon fill="none" points="1594.98,309.68,1601.6977,312.3016,1606.7013,307.109,1599.9837,304.4874,1594.98,309.68" style="stroke:#181818;stroke-width:1.0;"/></g><!--MD5=[7aa3fec53a31bee566a6821a537edf66]
@startuml RPC
    class RPCHelpMan
    class RPCResult
class RPCHelpMan{
    +RPCHelpMan(string name, string description, vector<RPCArg> args, RPCResults results, RPCExamples examples)
    +UniValue HandleRequest(const JSONRPCRequest& request)
    +string ToString()
    +UniValue GetArgMap()
    +bool IsValidNumArgs(size_t num_args)
    +vector<std::string> GetArgNames()
    +string m_name
    #RPCMethodImpl m_fun
    #string m_description
    #RPCResults m_results
    #vector<RPCArg> m_args
    #RPCExamples m_examples
}
class RPCResult {
    +Type m_type
    +string m_key_name
    +vector<RPCResult> m_inner
    +bool m_optional;
    +bool m_skip_type_check;
    +string m_description;
}    
class RPCResults {
    +vector<RPCResult> m_results
    +std::string ToDescriptionString()
}    
class RPCExamples {
    +std::string m_examples
    +RPCExamples(string examples)
}
class RPCArg {
    +GetFirstName()
    +GetName()
    +IsOptional()
    +ToDescriptionString()
    +ToString()
    +ToStringObject()
    +string m_names
    +Type m_type
    +bool m_hidden
    +vector<RPCArg> m_inner
    +Fallback m_fallback
    +string m_description
    +string m_oneline_description
    +vector<string> m_type_str
}
RPCResult -o RPCResults::m_results
RPCResult - -o RPCResult
RPCArg     o- - RPCArg
RPCHelpMan::m_examples o- - RPCExamples
JSONRPCRequest -o RPCHelpMan::m_fun
RPCHelpMan::m_args o- -  RPCArg
RPCResults - -o RPCHelpMan::m_results
note left of RPCHelpMan::m_fun
    RPCMethodImpl = function<UniValue(const RPCHelpMan&, const JSONRPCRequest&)>
end note    
@enduml

PlantUML version 1.2022.13(Sat Nov 19 07:22:17 CST 2022)
(GPL source distribution)
Java Runtime: OpenJDK Runtime Environment
JVM: OpenJDK 64-Bit Server VM
Default Encoding: UTF-8
Language: en
Country: MX
--></g></svg>