<?xml version="1.0" encoding="UTF-8" standalone="no"?><svg xmlns="http://www.w3.org/2000/svg" xmlns:xlink="http://www.w3.org/1999/xlink" contentStyleType="text/css" height="818px" preserveAspectRatio="none" style="width:1978px;height:818px;background:#FFFFFF;" version="1.1" viewBox="0 0 1978 818" width="1978px" zoomAndPan="magnify"><defs/><g><!--MD5=[cfc36345eab149570afdc656f2b384de]
class Chain--><g id="elem_Chain"><rect fill="#F1F1F1" height="48" id="Chain" rx="2.5" ry="2.5" style="stroke:#181818;stroke-width:0.5;" width="72" x="798" y="224"/><ellipse cx="813" cy="240" fill="#ADD1B2" rx="11" ry="11" style="stroke:#181818;stroke-width:1.0;"/><path d="M815.4731,246.1431 Q814.8921,246.4419 814.2529,246.5913 Q813.6138,246.7407 812.9082,246.7407 Q810.4014,246.7407 809.0815,245.0889 Q807.7617,243.437 807.7617,240.3159 Q807.7617,237.1865 809.0815,235.5347 Q810.4014,233.8828 812.9082,233.8828 Q813.6138,233.8828 814.2612,234.0322 Q814.9087,234.1816 815.4731,234.4805 L815.4731,237.2031 Q814.8423,236.6221 814.2488,236.3523 Q813.6553,236.0825 813.0244,236.0825 Q811.6797,236.0825 810.9949,237.1492 Q810.3101,238.2158 810.3101,240.3159 Q810.3101,242.4077 810.9949,243.4744 Q811.6797,244.541 813.0244,244.541 Q813.6553,244.541 814.2488,244.2712 Q814.8423,244.0015 815.4731,243.4204 Z " fill="#000000"/><text fill="#000000" font-family="sans-serif" font-size="14" lengthAdjust="spacing" textLength="40" x="827" y="245.291">Chain</text><line style="stroke:#181818;stroke-width:0.5;" x1="799" x2="869" y1="256" y2="256"/><line style="stroke:#181818;stroke-width:0.5;" x1="799" x2="869" y1="264" y2="264"/></g><!--MD5=[59b04c4eed21e7d2ec3305bdf2718ba0]
class ChainImpl--><g id="elem_ChainImpl"><rect fill="#F1F1F1" height="48" id="ChainImpl" rx="2.5" ry="2.5" style="stroke:#181818;stroke-width:0.5;" width="102" x="569" y="494"/><ellipse cx="584" cy="510" fill="#ADD1B2" rx="11" ry="11" style="stroke:#181818;stroke-width:1.0;"/><path d="M586.4731,516.1431 Q585.8921,516.4419 585.2529,516.5913 Q584.6138,516.7407 583.9082,516.7407 Q581.4014,516.7407 580.0815,515.0889 Q578.7617,513.437 578.7617,510.3159 Q578.7617,507.1865 580.0815,505.5347 Q581.4014,503.8828 583.9082,503.8828 Q584.6138,503.8828 585.2612,504.0322 Q585.9087,504.1816 586.4731,504.4805 L586.4731,507.2031 Q585.8423,506.6221 585.2488,506.3523 Q584.6553,506.0825 584.0244,506.0825 Q582.6797,506.0825 581.9949,507.1492 Q581.3101,508.2158 581.3101,510.3159 Q581.3101,512.4077 581.9949,513.4744 Q582.6797,514.541 584.0244,514.541 Q584.6553,514.541 585.2488,514.2712 Q585.8423,514.0015 586.4731,513.4204 Z " fill="#000000"/><text fill="#000000" font-family="sans-serif" font-size="14" lengthAdjust="spacing" textLength="70" x="598" y="515.291">ChainImpl</text><line style="stroke:#181818;stroke-width:0.5;" x1="570" x2="670" y1="526" y2="526"/><line style="stroke:#181818;stroke-width:0.5;" x1="570" x2="670" y1="534" y2="534"/></g><!--MD5=[d9da613305f9a6871829410bda84af9f]
class ScriptPubKeyMan--><g id="elem_ScriptPubKeyMan"><rect codeLine="41" fill="#F1F1F1" height="64.4883" id="ScriptPubKeyMan" rx="2.5" ry="2.5" style="stroke:#181818;stroke-width:0.5;" width="206" x="1464" y="216"/><ellipse cx="1504.2" cy="232" fill="#ADD1B2" rx="11" ry="11" style="stroke:#181818;stroke-width:1.0;"/><path d="M1506.6731,238.1431 Q1506.0921,238.4419 1505.4529,238.5913 Q1504.8138,238.7407 1504.1082,238.7407 Q1501.6014,238.7407 1500.2815,237.0889 Q1498.9617,235.437 1498.9617,232.3159 Q1498.9617,229.1865 1500.2815,227.5347 Q1501.6014,225.8828 1504.1082,225.8828 Q1504.8138,225.8828 1505.4612,226.0322 Q1506.1087,226.1816 1506.6731,226.4805 L1506.6731,229.2031 Q1506.0423,228.6221 1505.4488,228.3523 Q1504.8553,228.0825 1504.2244,228.0825 Q1502.8797,228.0825 1502.1949,229.1492 Q1501.5101,230.2158 1501.5101,232.3159 Q1501.5101,234.4077 1502.1949,235.4744 Q1502.8797,236.541 1504.2244,236.541 Q1504.8553,236.541 1505.4488,236.2712 Q1506.0423,236.0015 1506.6731,235.4204 Z " fill="#000000"/><text fill="#000000" font-family="sans-serif" font-size="14" lengthAdjust="spacing" textLength="118" x="1523.8" y="237.291">ScriptPubKeyMan</text><line style="stroke:#181818;stroke-width:0.5;" x1="1465" x2="1669" y1="248" y2="248"/><polygon fill="none" points="1475,256.7441,1479,260.7441,1475,264.7441,1471,260.7441" style="stroke:#B38D22;stroke-width:1.0;"/><text fill="#000000" font-family="sans-serif" font-size="14" lengthAdjust="spacing" textLength="180" x="1484" y="265.5352">WalletStorage&amp; m_storage</text><line style="stroke:#181818;stroke-width:0.5;" x1="1465" x2="1669" y1="272.4883" y2="272.4883"/></g><!--MD5=[abe2c4d13a58d341c2af46a17ea507eb]
class DescriptorScriptPubkeyMan--><g id="elem_DescriptorScriptPubkeyMan"><rect codeLine="44" fill="#F1F1F1" height="146.9297" id="DescriptorScriptPubkeyMan" rx="2.5" ry="2.5" style="stroke:#181818;stroke-width:0.5;" width="562" x="1171" y="445"/><ellipse cx="1353.75" cy="461" fill="#ADD1B2" rx="11" ry="11" style="stroke:#181818;stroke-width:1.0;"/><path d="M1356.2231,467.1431 Q1355.6421,467.4419 1355.0029,467.5913 Q1354.3638,467.7407 1353.6582,467.7407 Q1351.1514,467.7407 1349.8315,466.0889 Q1348.5117,464.437 1348.5117,461.3159 Q1348.5117,458.1865 1349.8315,456.5347 Q1351.1514,454.8828 1353.6582,454.8828 Q1354.3638,454.8828 1355.0112,455.0322 Q1355.6587,455.1816 1356.2231,455.4805 L1356.2231,458.2031 Q1355.5923,457.6221 1354.9988,457.3523 Q1354.4053,457.0825 1353.7744,457.0825 Q1352.4297,457.0825 1351.7449,458.1492 Q1351.0601,459.2158 1351.0601,461.3159 Q1351.0601,463.4077 1351.7449,464.4744 Q1352.4297,465.541 1353.7744,465.541 Q1354.4053,465.541 1354.9988,465.2712 Q1355.5923,465.0015 1356.2231,464.4204 Z " fill="#000000"/><text fill="#000000" font-family="sans-serif" font-size="14" lengthAdjust="spacing" textLength="188" x="1374.25" y="466.291">DescriptorScriptPubkeyMan</text><line style="stroke:#181818;stroke-width:0.5;" x1="1172" x2="1732" y1="477" y2="477"/><ellipse cx="1182" cy="490.7441" fill="none" rx="3" ry="3" style="stroke:#038048;stroke-width:1.0;"/><text fill="#000000" font-family="sans-serif" font-size="14" lengthAdjust="spacing" textLength="339" x="1191" y="494.5352">map&lt;CScript, int32_t&gt;    m_map_script_pub_keys</text><ellipse cx="1182" cy="507.2324" fill="none" rx="3" ry="3" style="stroke:#038048;stroke-width:1.0;"/><text fill="#000000" font-family="sans-serif" font-size="14" lengthAdjust="spacing" textLength="298" x="1191" y="511.0234">map&lt;CPubKey, int32_t&gt;    m_map_pubkeys</text><ellipse cx="1182" cy="523.7207" fill="none" rx="3" ry="3" style="stroke:#038048;stroke-width:1.0;"/><text fill="#000000" font-family="sans-serif" font-size="14" lengthAdjust="spacing" textLength="261" x="1191" y="527.5117">map&lt;CKeyID, CKey&gt;        m_map_keys</text><ellipse cx="1182" cy="540.209" fill="none" rx="3" ry="3" style="stroke:#038048;stroke-width:1.0;"/><text fill="#000000" font-family="sans-serif" font-size="14" lengthAdjust="spacing" textLength="536" x="1191" y="544">map&lt;CKeyID, pair&lt;CPubKey, vector&lt;unsigned char&gt;&gt;&gt; m_map_crypted_keys</text><ellipse cx="1182" cy="556.6973" fill="none" rx="3" ry="3" style="stroke:#038048;stroke-width:1.0;"/><text fill="#000000" font-family="sans-serif" font-size="14" lengthAdjust="spacing" textLength="426" x="1191" y="560.4883">map&lt;int32_t, FlatSigningProvider&gt; m_map_signing_providers</text><polygon fill="none" points="1182,568.1855,1186,572.1855,1182,576.1855,1178,572.1855" style="stroke:#B38D22;stroke-width:1.0;"/><text fill="#000000" font-family="sans-serif" font-size="14" lengthAdjust="spacing" textLength="285" x="1191" y="576.9766">WalletDescriptor         m_wallet_descriptor</text><line style="stroke:#181818;stroke-width:0.5;" x1="1172" x2="1732" y1="583.9297" y2="583.9297"/></g><!--MD5=[ff90d4a1f712cd9d0855efdfa9818ec3]
class LegacyScriptPubkeyMan--><g id="elem_LegacyScriptPubkeyMan"><rect fill="#F1F1F1" height="48" id="LegacyScriptPubkeyMan" rx="2.5" ry="2.5" style="stroke:#181818;stroke-width:0.5;" width="195" x="1776.5" y="494"/><ellipse cx="1791.5" cy="510" fill="#ADD1B2" rx="11" ry="11" style="stroke:#181818;stroke-width:1.0;"/><path d="M1793.9731,516.1431 Q1793.3921,516.4419 1792.7529,516.5913 Q1792.1138,516.7407 1791.4082,516.7407 Q1788.9014,516.7407 1787.5815,515.0889 Q1786.2617,513.437 1786.2617,510.3159 Q1786.2617,507.1865 1787.5815,505.5347 Q1788.9014,503.8828 1791.4082,503.8828 Q1792.1138,503.8828 1792.7612,504.0322 Q1793.4087,504.1816 1793.9731,504.4805 L1793.9731,507.2031 Q1793.3423,506.6221 1792.7488,506.3523 Q1792.1553,506.0825 1791.5244,506.0825 Q1790.1797,506.0825 1789.4949,507.1492 Q1788.8101,508.2158 1788.8101,510.3159 Q1788.8101,512.4077 1789.4949,513.4744 Q1790.1797,514.541 1791.5244,514.541 Q1792.1553,514.541 1792.7488,514.2712 Q1793.3423,514.0015 1793.9731,513.4204 Z " fill="#000000"/><text fill="#000000" font-family="sans-serif" font-size="14" lengthAdjust="spacing" textLength="163" x="1805.5" y="515.291">LegacyScriptPubkeyMan</text><line style="stroke:#181818;stroke-width:0.5;" x1="1777.5" x2="1970.5" y1="526" y2="526"/><line style="stroke:#181818;stroke-width:0.5;" x1="1777.5" x2="1970.5" y1="534" y2="534"/></g><!--MD5=[e4647d1ce500727c70243812795fb917]
class SigningProvider--><g id="elem_SigningProvider"><rect fill="#F1F1F1" height="48" id="SigningProvider" rx="2.5" ry="2.5" style="stroke:#181818;stroke-width:0.5;" width="141" x="31.5" y="224"/><ellipse cx="46.5" cy="240" fill="#ADD1B2" rx="11" ry="11" style="stroke:#181818;stroke-width:1.0;"/><path d="M48.9731,246.1431 Q48.3921,246.4419 47.7529,246.5913 Q47.1138,246.7407 46.4082,246.7407 Q43.9014,246.7407 42.5815,245.0889 Q41.2617,243.437 41.2617,240.3159 Q41.2617,237.1865 42.5815,235.5347 Q43.9014,233.8828 46.4082,233.8828 Q47.1138,233.8828 47.7612,234.0322 Q48.4087,234.1816 48.9731,234.4805 L48.9731,237.2031 Q48.3423,236.6221 47.7488,236.3523 Q47.1553,236.0825 46.5244,236.0825 Q45.1797,236.0825 44.4949,237.1492 Q43.8101,238.2158 43.8101,240.3159 Q43.8101,242.4077 44.4949,243.4744 Q45.1797,244.541 46.5244,244.541 Q47.1553,244.541 47.7488,244.2712 Q48.3423,244.0015 48.9731,243.4204 Z " fill="#000000"/><text fill="#000000" font-family="sans-serif" font-size="14" lengthAdjust="spacing" textLength="109" x="60.5" y="245.291">SigningProvider</text><line style="stroke:#181818;stroke-width:0.5;" x1="32.5" x2="171.5" y1="256" y2="256"/><line style="stroke:#181818;stroke-width:0.5;" x1="32.5" x2="171.5" y1="264" y2="264"/></g><!--MD5=[04d189a23096a2b6da6e3135338029e3]
class FillableSigningProvider--><g id="elem_FillableSigningProvider"><rect fill="#F1F1F1" height="48" id="FillableSigningProvider" rx="2.5" ry="2.5" style="stroke:#181818;stroke-width:0.5;" width="190" x="7" y="494"/><ellipse cx="22" cy="510" fill="#ADD1B2" rx="11" ry="11" style="stroke:#181818;stroke-width:1.0;"/><path d="M24.4731,516.1431 Q23.8921,516.4419 23.2529,516.5913 Q22.6138,516.7407 21.9082,516.7407 Q19.4014,516.7407 18.0815,515.0889 Q16.7617,513.437 16.7617,510.3159 Q16.7617,507.1865 18.0815,505.5347 Q19.4014,503.8828 21.9082,503.8828 Q22.6138,503.8828 23.2612,504.0322 Q23.9087,504.1816 24.4731,504.4805 L24.4731,507.2031 Q23.8423,506.6221 23.2488,506.3523 Q22.6553,506.0825 22.0244,506.0825 Q20.6797,506.0825 19.9949,507.1492 Q19.3101,508.2158 19.3101,510.3159 Q19.3101,512.4077 19.9949,513.4744 Q20.6797,514.541 22.0244,514.541 Q22.6553,514.541 23.2488,514.2712 Q23.8423,514.0015 24.4731,513.4204 Z " fill="#000000"/><text fill="#000000" font-family="sans-serif" font-size="14" lengthAdjust="spacing" textLength="158" x="36" y="515.291">FillableSigningProvider</text><line style="stroke:#181818;stroke-width:0.5;" x1="8" x2="196" y1="526" y2="526"/><line style="stroke:#181818;stroke-width:0.5;" x1="8" x2="196" y1="534" y2="534"/></g><!--MD5=[56d2f8c65a75a481fa9366e361cc9a27]
class LegacySigningProvider--><g id="elem_LegacySigningProvider"><rect fill="#F1F1F1" height="48" id="LegacySigningProvider" rx="2.5" ry="2.5" style="stroke:#181818;stroke-width:0.5;" width="187" x="232.5" y="494"/><ellipse cx="247.5" cy="510" fill="#ADD1B2" rx="11" ry="11" style="stroke:#181818;stroke-width:1.0;"/><path d="M249.9731,516.1431 Q249.3921,516.4419 248.7529,516.5913 Q248.1138,516.7407 247.4082,516.7407 Q244.9014,516.7407 243.5815,515.0889 Q242.2617,513.437 242.2617,510.3159 Q242.2617,507.1865 243.5815,505.5347 Q244.9014,503.8828 247.4082,503.8828 Q248.1138,503.8828 248.7612,504.0322 Q249.4087,504.1816 249.9731,504.4805 L249.9731,507.2031 Q249.3423,506.6221 248.7488,506.3523 Q248.1553,506.0825 247.5244,506.0825 Q246.1797,506.0825 245.4949,507.1492 Q244.8101,508.2158 244.8101,510.3159 Q244.8101,512.4077 245.4949,513.4744 Q246.1797,514.541 247.5244,514.541 Q248.1553,514.541 248.7488,514.2712 Q249.3423,514.0015 249.9731,513.4204 Z " fill="#000000"/><text fill="#000000" font-family="sans-serif" font-size="14" lengthAdjust="spacing" textLength="155" x="261.5" y="515.291">LegacySigningProvider</text><line style="stroke:#181818;stroke-width:0.5;" x1="233.5" x2="418.5" y1="526" y2="526"/><line style="stroke:#181818;stroke-width:0.5;" x1="233.5" x2="418.5" y1="534" y2="534"/></g><!--MD5=[44eb802ae41d3154466b3418bbf5042c]
class WalletStorage--><g id="elem_WalletStorage"><rect fill="#F1F1F1" height="48" id="WalletStorage" rx="2.5" ry="2.5" style="stroke:#181818;stroke-width:0.5;" width="126" x="995" y="7"/><ellipse cx="1010" cy="23" fill="#ADD1B2" rx="11" ry="11" style="stroke:#181818;stroke-width:1.0;"/><path d="M1012.4731,29.1431 Q1011.8921,29.4419 1011.2529,29.5913 Q1010.6138,29.7407 1009.9082,29.7407 Q1007.4014,29.7407 1006.0815,28.0889 Q1004.7617,26.437 1004.7617,23.3159 Q1004.7617,20.1865 1006.0815,18.5347 Q1007.4014,16.8828 1009.9082,16.8828 Q1010.6138,16.8828 1011.2612,17.0322 Q1011.9087,17.1816 1012.4731,17.4805 L1012.4731,20.2031 Q1011.8423,19.6221 1011.2488,19.3523 Q1010.6553,19.0825 1010.0244,19.0825 Q1008.6797,19.0825 1007.9949,20.1492 Q1007.3101,21.2158 1007.3101,23.3159 Q1007.3101,25.4077 1007.9949,26.4744 Q1008.6797,27.541 1010.0244,27.541 Q1010.6553,27.541 1011.2488,27.2712 Q1011.8423,27.0015 1012.4731,26.4204 Z " fill="#000000"/><text fill="#000000" font-family="sans-serif" font-size="14" lengthAdjust="spacing" textLength="94" x="1024" y="28.291">WalletStorage</text><line style="stroke:#181818;stroke-width:0.5;" x1="996" x2="1120" y1="39" y2="39"/><line style="stroke:#181818;stroke-width:0.5;" x1="996" x2="1120" y1="47" y2="47"/></g><!--MD5=[f397f45f0520a5e7a713741fca2e735b]
class CWallet--><g id="elem_CWallet"><rect codeLine="19" fill="#F1F1F1" height="262.3477" id="CWallet" rx="2.5" ry="2.5" style="stroke:#181818;stroke-width:0.5;" width="507" x="913.5" y="119"/><ellipse cx="1137.25" cy="135" fill="#ADD1B2" rx="11" ry="11" style="stroke:#181818;stroke-width:1.0;"/><path d="M1139.7231,141.1431 Q1139.1421,141.4419 1138.5029,141.5913 Q1137.8638,141.7407 1137.1582,141.7407 Q1134.6514,141.7407 1133.3315,140.0889 Q1132.0117,138.437 1132.0117,135.3159 Q1132.0117,132.1865 1133.3315,130.5347 Q1134.6514,128.8828 1137.1582,128.8828 Q1137.8638,128.8828 1138.5112,129.0322 Q1139.1587,129.1816 1139.7231,129.4805 L1139.7231,132.2031 Q1139.0923,131.6221 1138.4988,131.3523 Q1137.9053,131.0825 1137.2744,131.0825 Q1135.9297,131.0825 1135.2449,132.1492 Q1134.5601,133.2158 1134.5601,135.3159 Q1134.5601,137.4077 1135.2449,138.4744 Q1135.9297,139.541 1137.2744,139.541 Q1137.9053,139.541 1138.4988,139.2712 Q1139.0923,139.0015 1139.7231,138.4204 Z " fill="#000000"/><text fill="#000000" font-family="sans-serif" font-size="14" lengthAdjust="spacing" textLength="51" x="1157.75" y="140.291">CWallet</text><line style="stroke:#181818;stroke-width:0.5;" x1="914.5" x2="1419.5" y1="151" y2="151"/><rect fill="none" height="6" style="stroke:#C82930;stroke-width:1.0;" width="6" x="921.5" y="161.7441"/><text fill="#000000" font-family="sans-serif" font-size="14" lengthAdjust="spacing" textLength="192" x="933.5" y="168.5352">CKeyingMaterial vMasterKey</text><rect fill="none" height="6" style="stroke:#C82930;stroke-width:1.0;" width="6" x="921.5" y="178.2324"/><text fill="#000000" font-family="sans-serif" font-size="14" lengthAdjust="spacing" textLength="124" x="933.5" y="185.0234">int nWalletVersion</text><rect fill="none" height="6" style="stroke:#C82930;stroke-width:1.0;" width="6" x="921.5" y="194.7207"/><text fill="#000000" font-family="sans-serif" font-size="14" lengthAdjust="spacing" textLength="250" x="933.5" y="201.5117">atomic&lt;int64_t&gt; m_best_block_time</text><rect fill="none" height="6" style="stroke:#C82930;stroke-width:1.0;" width="6" x="921.5" y="211.209"/><text fill="#000000" font-family="sans-serif" font-size="14" lengthAdjust="spacing" textLength="170" x="933.5" y="218">TxSpends mapTxSpends</text><rect fill="none" height="6" style="stroke:#C82930;stroke-width:1.0;" width="6" x="921.5" y="227.6973"/><text fill="#000000" font-family="sans-serif" font-size="14" lengthAdjust="spacing" textLength="183" x="933.5" y="234.4883">interfaces::Chain* m_chain</text><rect fill="none" height="6" style="stroke:#C82930;stroke-width:1.0;" width="6" x="921.5" y="244.1855"/><text fill="#000000" font-family="sans-serif" font-size="14" lengthAdjust="spacing" textLength="102" x="933.5" y="250.9766">string m_name</text><rect fill="none" height="6" style="stroke:#C82930;stroke-width:1.0;" width="6" x="921.5" y="260.6738"/><text fill="#000000" font-family="sans-serif" font-size="14" lengthAdjust="spacing" textLength="287" x="933.5" y="267.4648">unique_ptr&lt;WalletDatabase&gt; m_database</text><rect fill="none" height="6" style="stroke:#C82930;stroke-width:1.0;" width="6" x="921.5" y="277.1621"/><text fill="#000000" font-family="sans-serif" font-size="14" lengthAdjust="spacing" textLength="250" x="933.5" y="283.9531">atomic&lt;int64_t&gt; m_best_block_time</text><rect fill="none" height="6" style="stroke:#C82930;stroke-width:1.0;" width="6" x="921.5" y="293.6504"/><text fill="#000000" font-family="sans-serif" font-size="14" lengthAdjust="spacing" textLength="453" x="933.5" y="300.4414">map&lt;OutputType, ScriptPubKeyMan*&gt; m_external_spk_managers</text><rect fill="none" height="6" style="stroke:#C82930;stroke-width:1.0;" width="6" x="921.5" y="310.1387"/><text fill="#000000" font-family="sans-serif" font-size="14" lengthAdjust="spacing" textLength="449" x="933.5" y="316.9297">map&lt;OutputType, ScriptPubKeyMan*&gt; m_internal_spk_managers</text><rect fill="none" height="6" style="stroke:#C82930;stroke-width:1.0;" width="6" x="921.5" y="326.627"/><text fill="#000000" font-family="sans-serif" font-size="14" lengthAdjust="spacing" textLength="481" x="933.5" y="333.418">map&lt;uint256, std::unique_ptr&lt;ScriptPubKeyMan&gt;&gt; m_spk_managers</text><ellipse cx="924.5" cy="346.1152" fill="none" rx="3" ry="3" style="stroke:#038048;stroke-width:1.0;"/><text fill="#000000" font-family="sans-serif" font-size="14" lengthAdjust="spacing" textLength="446" x="933.5" y="349.9063">std::map&lt;CTxDestination, CAddressBookData&gt; m_address_book</text><rect fill="none" height="6" style="stroke:#C82930;stroke-width:1.0;" width="6" x="921.5" y="359.6035"/><text fill="#000000" font-family="sans-serif" font-size="14" lengthAdjust="spacing" textLength="223" x="933.5" y="366.3945">uint256 m_last_block_processed</text><line style="stroke:#181818;stroke-width:0.5;" x1="914.5" x2="1419.5" y1="373.3477" y2="373.3477"/></g><!--MD5=[f1dc992a7062db329c88fc65235752f6]
class interfaces::Chain::Notifications--><g id="elem_interfaces::Chain::Notifications"><rect codeLine="9" fill="#F1F1F1" height="48" id="interfaces::Chain::Notifications" rx="2.5" ry="2.5" style="stroke:#181818;stroke-width:0.5;" width="241" x="1156.5" y="7"/><ellipse cx="1171.5" cy="23" fill="#B4A7E5" rx="11" ry="11" style="stroke:#181818;stroke-width:1.0;"/><path d="M1167.9277,19.2651 L1167.9277,17.1069 L1175.3071,17.1069 L1175.3071,19.2651 L1172.8418,19.2651 L1172.8418,27.3418 L1175.3071,27.3418 L1175.3071,29.5 L1167.9277,29.5 L1167.9277,27.3418 L1170.3931,27.3418 L1170.3931,19.2651 Z " fill="#000000"/><text fill="#000000" font-family="sans-serif" font-size="14" font-style="italic" lengthAdjust="spacing" textLength="209" x="1185.5" y="28.291">interfaces::Chain::Notifications</text><line style="stroke:#181818;stroke-width:0.5;" x1="1157.5" x2="1396.5" y1="39" y2="39"/><line style="stroke:#181818;stroke-width:0.5;" x1="1157.5" x2="1396.5" y1="47" y2="47"/></g><!--MD5=[c14540c5a90e6d1a3dc4aa2c7947a0fe]
class Descriptor--><g id="elem_Descriptor"><rect fill="#F1F1F1" height="48" id="Descriptor" rx="2.5" ry="2.5" style="stroke:#181818;stroke-width:0.5;" width="103" x="706.5" y="494"/><ellipse cx="721.5" cy="510" fill="#ADD1B2" rx="11" ry="11" style="stroke:#181818;stroke-width:1.0;"/><path d="M723.9731,516.1431 Q723.3921,516.4419 722.7529,516.5913 Q722.1138,516.7407 721.4082,516.7407 Q718.9014,516.7407 717.5815,515.0889 Q716.2617,513.437 716.2617,510.3159 Q716.2617,507.1865 717.5815,505.5347 Q718.9014,503.8828 721.4082,503.8828 Q722.1138,503.8828 722.7612,504.0322 Q723.4087,504.1816 723.9731,504.4805 L723.9731,507.2031 Q723.3423,506.6221 722.7488,506.3523 Q722.1553,506.0825 721.5244,506.0825 Q720.1797,506.0825 719.4949,507.1492 Q718.8101,508.2158 718.8101,510.3159 Q718.8101,512.4077 719.4949,513.4744 Q720.1797,514.541 721.5244,514.541 Q722.1553,514.541 722.7488,514.2712 Q723.3423,514.0015 723.9731,513.4204 Z " fill="#000000"/><text fill="#000000" font-family="sans-serif" font-size="14" lengthAdjust="spacing" textLength="71" x="735.5" y="515.291">Descriptor</text><line style="stroke:#181818;stroke-width:0.5;" x1="707.5" x2="808.5" y1="526" y2="526"/><line style="stroke:#181818;stroke-width:0.5;" x1="707.5" x2="808.5" y1="534" y2="534"/></g><!--MD5=[56eb5a14cb888aa48fbfb1f5ec1d3bdc]
class DescriptorImpl--><g id="elem_DescriptorImpl"><rect fill="#F1F1F1" height="48" id="DescriptorImpl" rx="2.5" ry="2.5" style="stroke:#181818;stroke-width:0.5;" width="133" x="691.5" y="655"/><ellipse cx="706.5" cy="671" fill="#ADD1B2" rx="11" ry="11" style="stroke:#181818;stroke-width:1.0;"/><path d="M708.9731,677.1431 Q708.3921,677.4419 707.7529,677.5913 Q707.1138,677.7407 706.4082,677.7407 Q703.9014,677.7407 702.5815,676.0889 Q701.2617,674.437 701.2617,671.3159 Q701.2617,668.1865 702.5815,666.5347 Q703.9014,664.8828 706.4082,664.8828 Q707.1138,664.8828 707.7612,665.0322 Q708.4087,665.1816 708.9731,665.4805 L708.9731,668.2031 Q708.3423,667.6221 707.7488,667.3523 Q707.1553,667.0825 706.5244,667.0825 Q705.1797,667.0825 704.4949,668.1492 Q703.8101,669.2158 703.8101,671.3159 Q703.8101,673.4077 704.4949,674.4744 Q705.1797,675.541 706.5244,675.541 Q707.1553,675.541 707.7488,675.2712 Q708.3423,675.0015 708.9731,674.4204 Z " fill="#000000"/><text fill="#000000" font-family="sans-serif" font-size="14" lengthAdjust="spacing" textLength="101" x="720.5" y="676.291">DescriptorImpl</text><line style="stroke:#181818;stroke-width:0.5;" x1="692.5" x2="823.5" y1="687" y2="687"/><line style="stroke:#181818;stroke-width:0.5;" x1="692.5" x2="823.5" y1="695" y2="695"/></g><!--MD5=[6eb2252c655d64801dd6168d8fec9168]
class AddressDescriptor--><g id="elem_AddressDescriptor"><rect fill="#F1F1F1" height="48" id="AddressDescriptor" rx="2.5" ry="2.5" style="stroke:#181818;stroke-width:0.5;" width="159" x="177.5" y="763"/><ellipse cx="192.5" cy="779" fill="#ADD1B2" rx="11" ry="11" style="stroke:#181818;stroke-width:1.0;"/><path d="M194.9731,785.1431 Q194.3921,785.4419 193.7529,785.5913 Q193.1138,785.7407 192.4082,785.7407 Q189.9014,785.7407 188.5815,784.0889 Q187.2617,782.437 187.2617,779.3159 Q187.2617,776.1865 188.5815,774.5347 Q189.9014,772.8828 192.4082,772.8828 Q193.1138,772.8828 193.7612,773.0322 Q194.4087,773.1816 194.9731,773.4805 L194.9731,776.2031 Q194.3423,775.6221 193.7488,775.3523 Q193.1553,775.0825 192.5244,775.0825 Q191.1797,775.0825 190.4949,776.1492 Q189.8101,777.2158 189.8101,779.3159 Q189.8101,781.4077 190.4949,782.4744 Q191.1797,783.541 192.5244,783.541 Q193.1553,783.541 193.7488,783.2712 Q194.3423,783.0015 194.9731,782.4204 Z " fill="#000000"/><text fill="#000000" font-family="sans-serif" font-size="14" lengthAdjust="spacing" textLength="127" x="206.5" y="784.291">AddressDescriptor</text><line style="stroke:#181818;stroke-width:0.5;" x1="178.5" x2="335.5" y1="795" y2="795"/><line style="stroke:#181818;stroke-width:0.5;" x1="178.5" x2="335.5" y1="803" y2="803"/></g><!--MD5=[5f1e878517c63bd38a5fe435dcc59ca3]
class RawDescriptor--><g id="elem_RawDescriptor"><rect fill="#F1F1F1" height="48" id="RawDescriptor" rx="2.5" ry="2.5" style="stroke:#181818;stroke-width:0.5;" width="131" x="371.5" y="763"/><ellipse cx="386.5" cy="779" fill="#ADD1B2" rx="11" ry="11" style="stroke:#181818;stroke-width:1.0;"/><path d="M388.9731,785.1431 Q388.3921,785.4419 387.7529,785.5913 Q387.1138,785.7407 386.4082,785.7407 Q383.9014,785.7407 382.5815,784.0889 Q381.2617,782.437 381.2617,779.3159 Q381.2617,776.1865 382.5815,774.5347 Q383.9014,772.8828 386.4082,772.8828 Q387.1138,772.8828 387.7612,773.0322 Q388.4087,773.1816 388.9731,773.4805 L388.9731,776.2031 Q388.3423,775.6221 387.7488,775.3523 Q387.1553,775.0825 386.5244,775.0825 Q385.1797,775.0825 384.4949,776.1492 Q383.8101,777.2158 383.8101,779.3159 Q383.8101,781.4077 384.4949,782.4744 Q385.1797,783.541 386.5244,783.541 Q387.1553,783.541 387.7488,783.2712 Q388.3423,783.0015 388.9731,782.4204 Z " fill="#000000"/><text fill="#000000" font-family="sans-serif" font-size="14" lengthAdjust="spacing" textLength="99" x="400.5" y="784.291">RawDescriptor</text><line style="stroke:#181818;stroke-width:0.5;" x1="372.5" x2="501.5" y1="795" y2="795"/><line style="stroke:#181818;stroke-width:0.5;" x1="372.5" x2="501.5" y1="803" y2="803"/></g><!--MD5=[c17f61c3e568bc5966b0debf11f5fc0f]
class PKDescriptor--><g id="elem_PKDescriptor"><rect fill="#F1F1F1" height="48" id="PKDescriptor" rx="2.5" ry="2.5" style="stroke:#181818;stroke-width:0.5;" width="120" x="538" y="763"/><ellipse cx="553" cy="779" fill="#ADD1B2" rx="11" ry="11" style="stroke:#181818;stroke-width:1.0;"/><path d="M555.4731,785.1431 Q554.8921,785.4419 554.2529,785.5913 Q553.6138,785.7407 552.9082,785.7407 Q550.4014,785.7407 549.0815,784.0889 Q547.7617,782.437 547.7617,779.3159 Q547.7617,776.1865 549.0815,774.5347 Q550.4014,772.8828 552.9082,772.8828 Q553.6138,772.8828 554.2612,773.0322 Q554.9087,773.1816 555.4731,773.4805 L555.4731,776.2031 Q554.8423,775.6221 554.2488,775.3523 Q553.6553,775.0825 553.0244,775.0825 Q551.6797,775.0825 550.9949,776.1492 Q550.3101,777.2158 550.3101,779.3159 Q550.3101,781.4077 550.9949,782.4744 Q551.6797,783.541 553.0244,783.541 Q553.6553,783.541 554.2488,783.2712 Q554.8423,783.0015 555.4731,782.4204 Z " fill="#000000"/><text fill="#000000" font-family="sans-serif" font-size="14" lengthAdjust="spacing" textLength="88" x="567" y="784.291">PKDescriptor</text><line style="stroke:#181818;stroke-width:0.5;" x1="539" x2="657" y1="795" y2="795"/><line style="stroke:#181818;stroke-width:0.5;" x1="539" x2="657" y1="803" y2="803"/></g><!--MD5=[f209f5a2ef705c01d513ef6cea611a56]
class PKHDescriptor--><g id="elem_PKHDescriptor"><rect fill="#F1F1F1" height="48" id="PKHDescriptor" rx="2.5" ry="2.5" style="stroke:#181818;stroke-width:0.5;" width="130" x="693" y="763"/><ellipse cx="708" cy="779" fill="#ADD1B2" rx="11" ry="11" style="stroke:#181818;stroke-width:1.0;"/><path d="M710.4731,785.1431 Q709.8921,785.4419 709.2529,785.5913 Q708.6138,785.7407 707.9082,785.7407 Q705.4014,785.7407 704.0815,784.0889 Q702.7617,782.437 702.7617,779.3159 Q702.7617,776.1865 704.0815,774.5347 Q705.4014,772.8828 707.9082,772.8828 Q708.6138,772.8828 709.2612,773.0322 Q709.9087,773.1816 710.4731,773.4805 L710.4731,776.2031 Q709.8423,775.6221 709.2488,775.3523 Q708.6553,775.0825 708.0244,775.0825 Q706.6797,775.0825 705.9949,776.1492 Q705.3101,777.2158 705.3101,779.3159 Q705.3101,781.4077 705.9949,782.4744 Q706.6797,783.541 708.0244,783.541 Q708.6553,783.541 709.2488,783.2712 Q709.8423,783.0015 710.4731,782.4204 Z " fill="#000000"/><text fill="#000000" font-family="sans-serif" font-size="14" lengthAdjust="spacing" textLength="98" x="722" y="784.291">PKHDescriptor</text><line style="stroke:#181818;stroke-width:0.5;" x1="694" x2="822" y1="795" y2="795"/><line style="stroke:#181818;stroke-width:0.5;" x1="694" x2="822" y1="803" y2="803"/></g><!--MD5=[ec69eb1e50d5171fc7f503eea6d33602]
class WPKHDescriptor--><g id="elem_WPKHDescriptor"><rect fill="#F1F1F1" height="48" id="WPKHDescriptor" rx="2.5" ry="2.5" style="stroke:#181818;stroke-width:0.5;" width="142" x="858" y="763"/><ellipse cx="873" cy="779" fill="#ADD1B2" rx="11" ry="11" style="stroke:#181818;stroke-width:1.0;"/><path d="M875.4731,785.1431 Q874.8921,785.4419 874.2529,785.5913 Q873.6138,785.7407 872.9082,785.7407 Q870.4014,785.7407 869.0815,784.0889 Q867.7617,782.437 867.7617,779.3159 Q867.7617,776.1865 869.0815,774.5347 Q870.4014,772.8828 872.9082,772.8828 Q873.6138,772.8828 874.2612,773.0322 Q874.9087,773.1816 875.4731,773.4805 L875.4731,776.2031 Q874.8423,775.6221 874.2488,775.3523 Q873.6553,775.0825 873.0244,775.0825 Q871.6797,775.0825 870.9949,776.1492 Q870.3101,777.2158 870.3101,779.3159 Q870.3101,781.4077 870.9949,782.4744 Q871.6797,783.541 873.0244,783.541 Q873.6553,783.541 874.2488,783.2712 Q874.8423,783.0015 875.4731,782.4204 Z " fill="#000000"/><text fill="#000000" font-family="sans-serif" font-size="14" lengthAdjust="spacing" textLength="110" x="887" y="784.291">WPKHDescriptor</text><line style="stroke:#181818;stroke-width:0.5;" x1="859" x2="999" y1="795" y2="795"/><line style="stroke:#181818;stroke-width:0.5;" x1="859" x2="999" y1="803" y2="803"/></g><!--MD5=[6d2af8a7fa8cc14fb9aa97665101e0e0]
class ComboDescriptor--><g id="elem_ComboDescriptor"><rect fill="#F1F1F1" height="48" id="ComboDescriptor" rx="2.5" ry="2.5" style="stroke:#181818;stroke-width:0.5;" width="153" x="1035.5" y="763"/><ellipse cx="1050.5" cy="779" fill="#ADD1B2" rx="11" ry="11" style="stroke:#181818;stroke-width:1.0;"/><path d="M1052.9731,785.1431 Q1052.3921,785.4419 1051.7529,785.5913 Q1051.1138,785.7407 1050.4082,785.7407 Q1047.9014,785.7407 1046.5815,784.0889 Q1045.2617,782.437 1045.2617,779.3159 Q1045.2617,776.1865 1046.5815,774.5347 Q1047.9014,772.8828 1050.4082,772.8828 Q1051.1138,772.8828 1051.7612,773.0322 Q1052.4087,773.1816 1052.9731,773.4805 L1052.9731,776.2031 Q1052.3423,775.6221 1051.7488,775.3523 Q1051.1553,775.0825 1050.5244,775.0825 Q1049.1797,775.0825 1048.4949,776.1492 Q1047.8101,777.2158 1047.8101,779.3159 Q1047.8101,781.4077 1048.4949,782.4744 Q1049.1797,783.541 1050.5244,783.541 Q1051.1553,783.541 1051.7488,783.2712 Q1052.3423,783.0015 1052.9731,782.4204 Z " fill="#000000"/><text fill="#000000" font-family="sans-serif" font-size="14" lengthAdjust="spacing" textLength="121" x="1064.5" y="784.291">ComboDescriptor</text><line style="stroke:#181818;stroke-width:0.5;" x1="1036.5" x2="1187.5" y1="795" y2="795"/><line style="stroke:#181818;stroke-width:0.5;" x1="1036.5" x2="1187.5" y1="803" y2="803"/></g><!--MD5=[593e6ecc6f309fcced74b9c8a390bb6b]
class MultisigDescriptor--><g id="elem_MultisigDescriptor"><rect fill="#F1F1F1" height="48" id="MultisigDescriptor" rx="2.5" ry="2.5" style="stroke:#181818;stroke-width:0.5;" width="157" x="1223.5" y="763"/><ellipse cx="1238.5" cy="779" fill="#ADD1B2" rx="11" ry="11" style="stroke:#181818;stroke-width:1.0;"/><path d="M1240.9731,785.1431 Q1240.3921,785.4419 1239.7529,785.5913 Q1239.1138,785.7407 1238.4082,785.7407 Q1235.9014,785.7407 1234.5815,784.0889 Q1233.2617,782.437 1233.2617,779.3159 Q1233.2617,776.1865 1234.5815,774.5347 Q1235.9014,772.8828 1238.4082,772.8828 Q1239.1138,772.8828 1239.7612,773.0322 Q1240.4087,773.1816 1240.9731,773.4805 L1240.9731,776.2031 Q1240.3423,775.6221 1239.7488,775.3523 Q1239.1553,775.0825 1238.5244,775.0825 Q1237.1797,775.0825 1236.4949,776.1492 Q1235.8101,777.2158 1235.8101,779.3159 Q1235.8101,781.4077 1236.4949,782.4744 Q1237.1797,783.541 1238.5244,783.541 Q1239.1553,783.541 1239.7488,783.2712 Q1240.3423,783.0015 1240.9731,782.4204 Z " fill="#000000"/><text fill="#000000" font-family="sans-serif" font-size="14" lengthAdjust="spacing" textLength="125" x="1252.5" y="784.291">MultisigDescriptor</text><line style="stroke:#181818;stroke-width:0.5;" x1="1224.5" x2="1379.5" y1="795" y2="795"/><line style="stroke:#181818;stroke-width:0.5;" x1="1224.5" x2="1379.5" y1="803" y2="803"/></g><path d="M207.5,212.5 L207.5,237.8105 A0,0 0 0 0 207.5,237.8105 L756.5,237.8105 A0,0 0 0 0 756.5,237.8105 L756.5,230.5 L917.5,163.2441 L756.5,222.5 L756.5,222.5 L746.5,212.5 L207.5,212.5 A0,0 0 0 0 207.5,212.5 " fill="#FEFFDD" style="stroke:#181818;stroke-width:0.5;"/><path d="M746.5,212.5 L746.5,222.5 L756.5,222.5 L746.5,212.5 " fill="#FEFFDD" style="stroke:#181818;stroke-width:0.5;"/><text fill="#000000" font-family="sans-serif" font-size="13" lengthAdjust="spacing" textLength="528" x="213.5" y="230.0684">typedef vector&lt;unsigned char, secure_allocator&lt;unsigned char&gt; &gt; CKeyingMaterial</text><path d="M207.5,247.8105 L207.5,273.1211 A0,0 0 0 0 207.5,273.1211 L762.5,273.1211 A0,0 0 0 0 762.5,273.1211 L762.5,265.8105 L917.5,212.709 L762.5,257.8105 L762.5,257.8105 L752.5,247.8105 L207.5,247.8105 A0,0 0 0 0 207.5,247.8105 " fill="#FEFFDD" style="stroke:#181818;stroke-width:0.5;"/><path d="M752.5,247.8105 L752.5,257.8105 L762.5,257.8105 L752.5,247.8105 " fill="#FEFFDD" style="stroke:#181818;stroke-width:0.5;"/><text fill="#000000" font-family="sans-serif" font-size="13" lengthAdjust="spacing" textLength="534" x="213.5" y="265.3789">typedef unordered_multimap&lt;COutPoint, uint256, SaltedOutpointHasher&gt; TxSpends</text><!--MD5=[1da4a35f2fdf2c6f1b8e5ef93ba4b6a0]
class WalletDescriptor--><g id="elem_WalletDescriptor"><rect codeLine="52" fill="#F1F1F1" height="64.4883" id="WalletDescriptor" rx="2.5" ry="2.5" style="stroke:#181818;stroke-width:0.5;" width="267" x="852.5" y="486"/><ellipse cx="925.75" cy="502" fill="#ADD1B2" rx="11" ry="11" style="stroke:#181818;stroke-width:1.0;"/><path d="M928.2231,508.1431 Q927.6421,508.4419 927.0029,508.5913 Q926.3638,508.7407 925.6582,508.7407 Q923.1514,508.7407 921.8315,507.0889 Q920.5117,505.437 920.5117,502.3159 Q920.5117,499.1865 921.8315,497.5347 Q923.1514,495.8828 925.6582,495.8828 Q926.3638,495.8828 927.0112,496.0322 Q927.6587,496.1816 928.2231,496.4805 L928.2231,499.2031 Q927.5923,498.6221 926.9988,498.3523 Q926.4053,498.0825 925.7744,498.0825 Q924.4297,498.0825 923.7449,499.1492 Q923.0601,500.2158 923.0601,502.3159 Q923.0601,504.4077 923.7449,505.4744 Q924.4297,506.541 925.7744,506.541 Q926.4053,506.541 926.9988,506.2712 Q927.5923,506.0015 928.2231,505.4204 Z " fill="#000000"/><text fill="#000000" font-family="sans-serif" font-size="14" lengthAdjust="spacing" textLength="112" x="946.25" y="507.291">WalletDescriptor</text><line style="stroke:#181818;stroke-width:0.5;" x1="853.5" x2="1118.5" y1="518" y2="518"/><ellipse cx="863.5" cy="531.7441" fill="none" rx="3" ry="3" style="stroke:#038048;stroke-width:1.0;"/><text fill="#000000" font-family="sans-serif" font-size="14" lengthAdjust="spacing" textLength="241" x="872.5" y="535.5352">shared_ptr&lt;Descriptor&gt; descriptor</text><line style="stroke:#181818;stroke-width:0.5;" x1="853.5" x2="1118.5" y1="542.4883" y2="542.4883"/></g><!--MD5=[eb6ae49f04e218a6021fbea7ecfbd23e]
reverse link Chain to ChainImpl--><g id="link_Chain_ChainImpl"><path codeLine="2" d="M823.3,292.74 C814.93,320.27 801.11,355.32 780,381 C749.23,418.42 725.79,409.49 689,441 C670.32,457 651.73,477.83 638.56,493.64 " fill="none" id="Chain-backto-ChainImpl" style="stroke:#181818;stroke-width:1.0;"/><polygon fill="none" points="816.51,291.05,828.58,273.64,830,294.78,816.51,291.05" style="stroke:#181818;stroke-width:1.0;"/></g><!--MD5=[5a6be3399359dac68b34503e3ec0a49c]
reverse link ScriptPubKeyMan to DescriptorScriptPubkeyMan--><g id="link_ScriptPubKeyMan_DescriptorScriptPubkeyMan"><path codeLine="3" d="M1545.1,300.04 C1528,339.89 1503.97,395.9 1484.6,441.02 " fill="none" id="ScriptPubKeyMan-backto-DescriptorScriptPubkeyMan" style="stroke:#181818;stroke-width:1.0;"/><polygon fill="none" points="1538.67,297.28,1552.99,281.66,1551.53,302.8,1538.67,297.28" style="stroke:#181818;stroke-width:1.0;"/></g><!--MD5=[3c84305088b2429bcce9c69b05ca1c9e]
reverse link ScriptPubKeyMan to LegacyScriptPubkeyMan--><g id="link_ScriptPubKeyMan_LegacyScriptPubkeyMan"><path codeLine="4" d="M1618.96,294.36 C1685.02,352.02 1796.55,449.39 1847.36,493.74 " fill="none" id="ScriptPubKeyMan-backto-LegacyScriptPubkeyMan" style="stroke:#181818;stroke-width:1.0;"/><polygon fill="none" points="1614.42,299.69,1603.96,281.26,1623.63,289.14,1614.42,299.69" style="stroke:#181818;stroke-width:1.0;"/></g><!--MD5=[d0640842fedef33a8c63716571313793]
reverse link SigningProvider to FillableSigningProvider--><g id="link_SigningProvider_FillableSigningProvider"><path codeLine="5" d="M102,293.52 C102,350.99 102,448.89 102,493.55 " fill="none" id="SigningProvider-backto-FillableSigningProvider" style="stroke:#181818;stroke-width:1.0;"/><polygon fill="none" points="95,293.83,102,273.83,109,293.83,95,293.83" style="stroke:#181818;stroke-width:1.0;"/></g><!--MD5=[5e91819992aa8c6bc3ba166934f9a3b6]
reverse link SigningProvider to LegacySigningProvider--><g id="link_SigningProvider_LegacySigningProvider"><path codeLine="6" d="M126.77,290.6 C143.4,317.35 166.51,352.35 190,381 C224.82,423.48 271.05,467.52 299.64,493.58 " fill="none" id="SigningProvider-backto-LegacySigningProvider" style="stroke:#181818;stroke-width:1.0;"/><polygon fill="none" points="120.88,294.39,116.44,273.68,132.83,287.1,120.88,294.39" style="stroke:#181818;stroke-width:1.0;"/></g><!--MD5=[fff5f31393d92aff9ef3032ff1bed5e4]
reverse link FillableSigningProvider to LegacyScriptPubkeyMan--><g id="link_FillableSigningProvider_LegacyScriptPubkeyMan"><path codeLine="7" d="M136.66,478.09 C160.74,453.57 195.11,424.37 232.5,411 C311.44,382.78 1662.46,383.07 1741.5,411 C1787.78,427.35 1829.75,467.49 1853.54,493.69 " fill="none" id="FillableSigningProvider-backto-LegacyScriptPubkeyMan" style="stroke:#181818;stroke-width:1.0;"/><polygon fill="none" points="141.88,482.77,123.1,492.59,131.65,473.2,141.88,482.77" style="stroke:#181818;stroke-width:1.0;"/></g><!--MD5=[56dc3715cc4c07674715f2411c438af6]
reverse link WalletStorage to CWallet--><g id="link_WalletStorage_CWallet"><path codeLine="8" d="M1079.58,74.56 C1085.74,86.71 1092.79,100.63 1100.17,115.18 " fill="none" id="WalletStorage-backto-CWallet" style="stroke:#181818;stroke-width:1.0;"/><polygon fill="none" points="1073.36,77.77,1070.56,56.77,1085.84,71.44,1073.36,77.77" style="stroke:#181818;stroke-width:1.0;"/></g><!--MD5=[235a2d7ff266a1b9854af080436835f8]
reverse link interfaces::Chain::Notifications to CWallet--><g id="link_interfaces::Chain::Notifications_CWallet"><path codeLine="10" d="M1255.23,74.56 C1249.01,86.71 1241.89,100.63 1234.44,115.18 " fill="none" id="interfaces::Chain::Notifications-backto-CWallet" style="stroke:#181818;stroke-width:1.0;"/><polygon fill="none" points="1248.99,71.38,1264.33,56.77,1261.45,77.76,1248.99,71.38" style="stroke:#181818;stroke-width:1.0;"/></g><!--MD5=[72cfde4166d26060cd5d67439399f28f]
reverse link Descriptor to DescriptorImpl--><g id="link_Descriptor_DescriptorImpl"><path codeLine="11" d="M758,563.61 C758,593.21 758,630.86 758,654.7 " fill="none" id="Descriptor-backto-DescriptorImpl" style="stroke:#181818;stroke-width:1.0;"/><polygon fill="none" points="751,563.97,758,543.97,765,563.97,751,563.97" style="stroke:#181818;stroke-width:1.0;"/></g><!--MD5=[ed451ee1e75409e4ad33806493524d19]
reverse link DescriptorImpl to AddressDescriptor--><g id="link_DescriptorImpl_AddressDescriptor"><path codeLine="12" d="M670.15,697.25 C588.2,713.54 462.62,738.97 354,763 C348.42,764.23 342.67,765.53 336.89,766.86 " fill="none" id="DescriptorImpl-backto-AddressDescriptor" style="stroke:#181818;stroke-width:1.0;"/><polygon fill="none" points="668.57,690.43,689.54,693.41,671.29,704.16,668.57,690.43" style="stroke:#181818;stroke-width:1.0;"/></g><!--MD5=[278d1c78c92424440f00f421193d4be5]
reverse link DescriptorImpl to RawDescriptor--><g id="link_DescriptorImpl_RawDescriptor"><path codeLine="13" d="M670.82,708.79 C617.93,726.25 551.51,748.19 502.99,764.21 " fill="none" id="DescriptorImpl-backto-RawDescriptor" style="stroke:#181818;stroke-width:1.0;"/><polygon fill="none" points="668.48,702.19,689.66,702.57,672.87,715.48,668.48,702.19" style="stroke:#181818;stroke-width:1.0;"/></g><!--MD5=[074f3e758a1641df9bb1418075a62e27]
reverse link DescriptorImpl to PKDescriptor--><g id="link_DescriptorImpl_PKDescriptor"><path codeLine="14" d="M705.29,714.92 C681.66,730.57 654.43,748.62 633.31,762.61 " fill="none" id="DescriptorImpl-backto-PKDescriptor" style="stroke:#181818;stroke-width:1.0;"/><polygon fill="none" points="701.09,709.31,721.63,704.1,708.82,720.98,701.09,709.31" style="stroke:#181818;stroke-width:1.0;"/></g><!--MD5=[6283fec781f0f2770d3969ff6cd067b6]
reverse link DescriptorImpl to PKHDescriptor--><g id="link_DescriptorImpl_PKHDescriptor"><path codeLine="15" d="M758,724.72 C758,737.82 758,751.62 758,762.79 " fill="none" id="DescriptorImpl-backto-PKHDescriptor" style="stroke:#181818;stroke-width:1.0;"/><polygon fill="none" points="751,724.78,758,704.78,765,724.78,751,724.78" style="stroke:#181818;stroke-width:1.0;"/></g><!--MD5=[b3a56f404596a990de5907361fe34139]
reverse link DescriptorImpl to WPKHDescriptor--><g id="link_DescriptorImpl_WPKHDescriptor"><path codeLine="16" d="M813.59,714.46 C839.01,730.22 868.47,748.48 891.27,762.61 " fill="none" id="DescriptorImpl-backto-WPKHDescriptor" style="stroke:#181818;stroke-width:1.0;"/><polygon fill="none" points="810.12,720.55,796.81,704.06,817.5,708.65,810.12,720.55" style="stroke:#181818;stroke-width:1.0;"/></g><!--MD5=[8490ab2c8cbbb4cd4bc6482b63342a2d]
reverse link DescriptorImpl to ComboDescriptor--><g id="link_DescriptorImpl_ComboDescriptor"><path codeLine="17" d="M845.17,706.1 C903.41,723.54 979.3,746.27 1035.25,763.02 " fill="none" id="DescriptorImpl-backto-ComboDescriptor" style="stroke:#181818;stroke-width:1.0;"/><polygon fill="none" points="843.19,712.81,826.03,700.37,847.2,699.4,843.19,712.81" style="stroke:#181818;stroke-width:1.0;"/></g><!--MD5=[c59ef5502496d9cadaf1325176997c0c]
reverse link DescriptorImpl to MultisigDescriptor--><g id="link_DescriptorImpl_MultisigDescriptor"><path codeLine="18" d="M845.58,694.84 C936.08,710.5 1081.31,736.53 1206,763 C1211.62,764.19 1217.41,765.47 1223.23,766.78 " fill="none" id="DescriptorImpl-backto-MultisigDescriptor" style="stroke:#181818;stroke-width:1.0;"/><polygon fill="none" points="844.64,701.78,826.12,691.49,847.02,687.98,844.64,701.78" style="stroke:#181818;stroke-width:1.0;"/></g><!--MD5=[fb9d3bf11ff8fa504002ca5ae59360cd]
link Chain to CWallet--><g id="link_Chain_CWallet"><path codeLine="55" d="M870.24,235 C880.05,232.16 891,229.68 901.82,228.59 " fill="none" id="Chain-to-CWallet" style="stroke:#181818;stroke-width:1.0;"/><polygon fill="none" points="911.49,228.08,905.2874,224.402,899.5067,228.7128,905.7093,232.3908,911.49,228.08" style="stroke:#181818;stroke-width:1.0;"/></g><!--MD5=[4c50af9bcacc56d935a757c3b29f3c22]
reverse link CWallet to ScriptPubKeyMan--><g id="link_CWallet_ScriptPubKeyMan"><path codeLine="56" d="M1422,293 C1458.28,302.2 1497.45,293.25 1525.77,280.4 " fill="none" id="CWallet-backto-ScriptPubKeyMan" style="stroke:#181818;stroke-width:1.0;"/><polygon fill="none" points="1422,293,1426.8327,298.3521,1433.6318,295.9496,1428.7991,290.5975,1422,293" style="stroke:#181818;stroke-width:1.0;"/></g><!--MD5=[4c50af9bcacc56d935a757c3b29f3c22]
reverse link CWallet to ScriptPubKeyMan--><g id="link_CWallet_ScriptPubKeyMan"><path codeLine="57" d="M1422,309 C1455.26,309 1489.66,295.03 1516.5,280.46 " fill="none" id="CWallet-backto-ScriptPubKeyMan-1" style="stroke:#181818;stroke-width:1.0;"/><polygon fill="none" points="1422,309,1428,313,1434,309,1428,305,1422,309" style="stroke:#181818;stroke-width:1.0;"/></g><!--MD5=[4c50af9bcacc56d935a757c3b29f3c22]
reverse link CWallet to ScriptPubKeyMan--><g id="link_CWallet_ScriptPubKeyMan"><path codeLine="58" d="M1422,325 C1462.11,325 1501.88,301.48 1529.42,280.43 " fill="none" id="CWallet-backto-ScriptPubKeyMan-2" style="stroke:#181818;stroke-width:1.0;"/><polygon fill="none" points="1422,325,1428,329,1434,325,1428,321,1422,325" style="stroke:#181818;stroke-width:1.0;"/></g><!--MD5=[a94455c657ae10f35a6965a255ea6700]
link Descriptor to WalletDescriptor--><g id="link_Descriptor_WalletDescriptor"><path codeLine="59" d="M809.53,526.91 C819.61,528.21 830.33,529.27 840.79,529.74 " fill="none" id="Descriptor-to-WalletDescriptor" style="stroke:#181818;stroke-width:1.0;"/><polygon fill="none" points="850.49,529.96,844.5884,525.8162,838.4935,529.67,844.3951,533.8138,850.49,529.96" style="stroke:#181818;stroke-width:1.0;"/></g><!--MD5=[60679e4439f91b81d808a6b769d499f5]
link WalletDescriptor to DescriptorScriptPubkeyMan--><g id="link_WalletDescriptor_DescriptorScriptPubkeyMan"><path codeLine="60" d="M1121,530 C1144.96,530 1143.16,559.19 1159.06,568.31 " fill="none" id="WalletDescriptor-to-DescriptorScriptPubkeyMan" style="stroke:#181818;stroke-width:1.0;"/><polygon fill="none" points="1168.53,570.64,1163.6566,565.3249,1156.876,567.7792,1161.7494,573.0943,1168.53,570.64" style="stroke:#181818;stroke-width:1.0;"/></g><!--MD5=[d44bc1c9f4d81b85150f1d825228554d]
@startuml wallet
    Chain <|- - ChainImpl
    ScriptPubKeyMan <|- - DescriptorScriptPubkeyMan
    ScriptPubKeyMan <|- - LegacyScriptPubkeyMan 
    SigningProvider <|- - FillableSigningProvider
    SigningProvider <|- - LegacySigningProvider
    FillableSigningProvider <|-  LegacyScriptPubkeyMan 
    WalletStorage <|- - CWallet
    interface interfaces::Chain::Notifications
    interfaces::Chain::Notifications <|- - CWallet
    Descriptor <|- - DescriptorImpl
    DescriptorImpl <|- - AddressDescriptor 
    DescriptorImpl <|- - RawDescriptor
    DescriptorImpl <|- - PKDescriptor
    DescriptorImpl <|- - PKHDescriptor
    DescriptorImpl <|- - WPKHDescriptor
    DescriptorImpl <|- - ComboDescriptor 
    DescriptorImpl <|- - MultisigDescriptor
    class CWallet {
        -CKeyingMaterial vMasterKey
        -int nWalletVersion
        -atomic<int64_t> m_best_block_time
        -TxSpends mapTxSpends
        -interfaces::Chain* m_chain
        -string m_name
        -unique_ptr<WalletDatabase> m_database
        -atomic<int64_t> m_best_block_time
        -map<OutputType, ScriptPubKeyMan*> m_external_spk_managers
        -map<OutputType, ScriptPubKeyMan*> m_internal_spk_managers
        -map<uint256, std::unique_ptr<ScriptPubKeyMan>> m_spk_managers
        +std::map<CTxDestination, CAddressBookData> m_address_book
        -uint256 m_last_block_processed
    }
    note left of CWallet::vMasterKey  
        typedef vector<unsigned char, secure_allocator<unsigned char> > CKeyingMaterial
    end note    
    note left of CWallet::mapTxSpends 
        typedef unordered_multimap<COutPoint, uint256, SaltedOutpointHasher> TxSpends
    end note    

    class ScriptPubKeyMan {
        #WalletStorage& m_storage
    }
    class DescriptorScriptPubkeyMan {
        +map<CScript, int32_t>    m_map_script_pub_keys
        +map<CPubKey, int32_t>    m_map_pubkeys
        +map<CKeyID, CKey>        m_map_keys
        +map<CKeyID, pair<CPubKey, vector<unsigned char>>> m_map_crypted_keys
        +map<int32_t, FlatSigningProvider> m_map_signing_providers
        #WalletDescriptor         m_wallet_descriptor
    }
    class WalletDescriptor {
        +shared_ptr<Descriptor> descriptor
    }
    Chain -o CWallet::m_chain
    CWallet::m_external_spk_managers o- ScriptPubKeyMan
    CWallet::m_internal_spk_managers o- ScriptPubKeyMan
    CWallet::m_spk_managers o- ScriptPubKeyMan
    Descriptor -o WalletDescriptor::descriptor
    WalletDescriptor::descriptor -o DescriptorScriptPubkeyMan::m_wallet_descriptor

@enduml

PlantUML version 1.2022.13(Sat Nov 19 07:22:17 CST 2022)
(GPL source distribution)
Java Runtime: OpenJDK Runtime Environment
JVM: OpenJDK 64-Bit Server VM
Default Encoding: UTF-8
Language: en
Country: MX
--></g></svg>